<?xml version="1.0" encoding="utf-8"?>
<!-- Generator: Adobe Illustrator 25.4.1, SVG Export Plug-In . SVG Version: 6.00 Build 0)  -->
<svg version="1.1" id="Layer_1" xmlns="http://www.w3.org/2000/svg" xmlns:xlink="http://www.w3.org/1999/xlink" x="0px" y="0px"
	 viewBox="0 0 26 24" style="enable-background:new 0 0 26 24;" xml:space="preserve">
<style type="text/css">
	.st0{fill:#162C99;stroke:#162C99;stroke-width:2;stroke-linecap:round;stroke-linejoin:round;}
</style>
<path class="st0" d="M23.1,2.9c-0.6-0.6-1.3-1.1-2-1.4C20.3,1.2,19.5,1,18.7,1c-0.8,0-1.7,0.2-2.4,0.5c-0.8,0.3-1.5,0.8-2,1.4
	L13,4.2l-1.2-1.3C10.6,1.7,9,1,7.3,1S4,1.7,2.9,2.9S1,5.9,1,7.6s0.7,3.4,1.9,4.7l1.2,1.3L13,23l8.9-9.4l1.2-1.3
	c0.6-0.6,1.1-1.3,1.4-2.2C24.8,9.4,25,8.5,25,7.6s-0.2-1.7-0.5-2.5C24.2,4.3,23.7,3.6,23.1,2.9z"/>
</svg>
